PathFileType	4	(X/Y/Z)	C:/Users/CLatella/Desktop/xsens/test 26Settembre2016/Meri-002.trc	
DataRate	CameraRate	NumFrames	NumMarkers	Units	OrigDataRate	OrigDataStartFrame	OrigNumFrames	
240.00	240.00	4	64	mm	240.00	663	1060	
Frame#	Time	pHipOrigin			pRightASI			pLeftASI			pRightCSI			pLeftCSI			pRightIschialTub			pLeftIschialTub			pSacrum			pL5SpinalProcess			pL3SpinalProcess			pT12SpinalProcess			pPX			pIJ			pT4SpinalProcess			pT8SpinalProcess			pC7SpinalProcess			pTopOfHead			pRightAuricularis			pLeftAuricularis			pBackOfHead			pRightAcromion			pLeftAcromion			pRightArmLatEpicondyle			pRightArmMedEpicondyle			pLeftArmLatEpicondyle			pLeftArmMedEpicondyle			pRightUlnarStyloid			pRightRadialStyloid			pRightOlecranon			pLeftUlnarStyloid			pLeftRadialStyloid			pLeftOlecranon			pRightTopOfHand			pRightPinky			pRightBallHand			pLeftTopOfHand			pLeftPinky			pLeftBallHand			pRightGreaterTrochanter			pRightKneeLatEpicondyle			pRightKneeMedEpicondyle			pRightPatella			pLeftGreaterTrochanter			pLeftKneeLatEpicondyle			pLeftKneeMedEpicondyle			pLeftPatella			pRightLatMalleolus			pRightMedMalleolus			pRightTibialTub			pLeftLatMalleolus			pLeftMedMalleolus			pLeftTibialTub			pRightHeelFoot			pRightFirstMetatarsal			pRightFifthMetatarsal			pRightPivotFoot			pRightHeelCenter			pRightToe			pLeftHeelFoot			pLeftFirstMetatarsal			pLeftFifthMetatarsal			pLeftPivotFoot			pLeftHeelCenter			pLeftToe			
		X1	Y1	Z1	X2	Y2	Z2	X3	Y3	Z3	X4	Y4	Z4	X5	Y5	Z5	X6	Y6	Z6	X7	Y7	Z7	X8	Y8	Z8	X9	Y9	Z9	X10	Y10	Z10	X11	Y11	Z11	X12	Y12	Z12	X13	Y13	Z13	X14	Y14	Z14	X15	Y15	Z15	X16	Y16	Z16	X17	Y17	Z17	X18	Y18	Z18	X19	Y19	Z19	X20	Y20	Z20	X21	Y21	Z21	X22	Y22	Z22	X23	Y23	Z23	X24	Y24	Z24	X25	Y25	Z25	X26	Y26	Z26	X27	Y27	Z27	X28	Y28	Z28	X29	Y29	Z29	X30	Y30	Z30	X31	Y31	Z31	X32	Y32	Z32	X33	Y33	Z33	X34	Y34	Z34	X35	Y35	Z35	X36	Y36	Z36	X37	Y37	Z37	X38	Y38	Z38	X39	Y39	Z39	X40	Y40	Z40	X41	Y41	Z41	X42	Y42	Z42	X43	Y43	Z43	X44	Y44	Z44	X45	Y45	Z45	X46	Y46	Z46	X47	Y47	Z47	X48	Y48	Z48	X49	Y49	Z49	X50	Y50	Z50	X51	Y51	Z51	X52	Y52	Z52	X53	Y53	Z53	X54	Y54	Z54	X55	Y55	Z55	X56	Y56	Z56	X57	Y57	Z57	X58	Y58	Z58	X59	Y59	Z59	X60	Y60	Z60	X61	Y61	Z61	X62	Y62	Z62	X63	Y63	Z63	X64	Y64	Z64	

663	2.758	165.59373	11.43576	924.24873	266.76771	-99.17646	963.25014	245.04476	139.37639	960.75325	265.41938	-77.60333	1042.85099	247.44178	119.55108	1040.80354	102.22267	-44.19495	906.02143	93.23386	54.38226	904.97274	115.30637	7.39079	975.38503	181.17432	14.33215	1027.22046	246.99234	17.32842	1110.66652	312.86029	18.97636	1177.63310	461.67492	24.76915	1120.85383	550.11476	24.16989	1187.52079	452.18674	19.27599	1282.25278	385.41991	19.57562	1236.16020	489.49027	20.52443	1308.86963	728.19294	27.46579	1387.72141	639.05397	-40.54949	1355.81116	641.05149	89.03909	1340.77988	606.49453	29.21361	1386.77259	504.12205	-144.61986	1293.03935	468.16684	197.00460	1265.07418	363.59709	-190.56263	1008.54372	359.90169	-129.93814	1002.75094	307.31720	183.22177	987.07047	309.36465	122.29766	989.66724	387.31754	-126.19281	779.67881	428.46629	-106.01794	790.46537	341.37477	-172.68490	1001.15293	338.02894	135.48124	760.55263	378.02911	112.75954	770.64007	288.39077	166.54255	983.92439	579.22849	-130.78709	788.56773	506.56900	-128.88945	749.71613	441.35024	-111.76079	766.19560	498.82864	219.32680	739.37901	420.82581	197.90348	723.54872	378.72824	145.51874	740.92708	180.57507	-138.12794	902.42591	166.19298	-144.76967	521.60028	159.30157	-71.71067	514.85868	203.59639	-101.82317	519.25320	102.67211	134.43255	900.82790	91.13648	128.68970	519.90239	149.51376	84.19512	513.11085	147.36644	137.67850	517.90488	143.87079	-170.08813	95.53100	146.21787	-107.46614	90.43735	227.76629	-110.31259	481.74992	78.60209	186.91717	97.77820	85.54344	124.89443	90.33747	182.77233	121.29891	478.10446	106.46738	-131.63603	-0.29963	254.08351	-123.94561	0.79900	242.84750	-189.71369	0.29963	267.26708	-159.15176	0.69913	145.46880	-138.32769	4.19477	343.07266	-172.08564	0.34956	42.24738	153.60866	0.99876	187.91593	128.53989	1.09863	184.47022	195.20684	0.79900	205.14447	161.94827	0.99876	81.74817	155.60617	5.29341	281.94880	165.89336	0.04994 
664	2.763	165.29410	11.23600	924.29866	266.36820	-99.42615	963.39996	244.69520	139.17664	960.90307	264.92001	-77.85302	1043.00080	246.99234	119.35133	1040.95335	101.92304	-44.34476	905.92155	92.98418	54.18251	904.92280	114.95681	7.19104	975.33509	180.72488	14.08246	1027.27040	246.39308	17.07873	1110.81633	312.16116	18.72667	1177.93273	461.07567	24.46952	1121.40314	549.36569	23.87027	1188.26985	451.23792	19.02630	1282.80210	384.57097	19.32593	1236.55970	488.54146	20.22481	1309.46888	727.04437	27.16616	1388.82004	638.00528	-40.84912	1356.75998	640.00279	88.73946	1341.72870	605.34596	28.91398	1387.62153	503.17323	-144.91948	1293.53873	467.31789	196.70498	1265.67344	363.39734	-190.51269	1008.64360	359.70194	-129.88821	1002.90075	307.26726	182.97208	987.22029	309.21483	122.04797	989.81705	387.16773	-126.34262	779.77868	428.36641	-106.16775	790.56525	341.17502	-172.63496	1001.30274	337.87913	135.33143	760.70244	377.87930	112.60973	770.73994	288.29090	166.29286	984.07420	579.12862	-130.98684	788.56773	506.41919	-129.08920	749.76607	441.25036	-111.91060	766.29548	498.67883	219.17699	739.42894	420.62605	197.75367	723.64860	378.57843	145.36892	741.02695	180.27544	-138.32769	902.42591	165.99323	-144.81961	521.60028	159.15176	-71.76061	514.90861	203.39664	-101.87310	519.30314	102.37248	134.23280	900.87784	90.93673	128.53989	519.95233	149.36395	84.14519	513.16079	147.16668	137.57863	517.95482	143.87079	-170.08813	95.53100	146.26780	-107.46614	90.43735	227.61647	-110.31259	481.79985	78.55215	186.86723	97.77820	85.49351	124.84449	90.38741	182.57258	121.19903	478.15440	106.51732	-131.58609	-0.29963	254.08351	-123.89567	0.79900	242.84750	-189.66375	0.29963	267.26708	-159.10182	0.69913	145.46880	-138.27776	4.19477	343.07266	-172.03571	0.34956	42.19744	153.55872	0.99876	187.86599	128.48995	1.09863	184.47022	195.10697	0.84894	205.14447	161.89833	1.04869	81.74817	155.60617	5.29341	281.89886	165.79348	0.04994 
665	2.767	165.04442	11.03625	924.29866	266.01864	-99.62590	963.59971	244.34564	138.92695	961.10282	264.42063	-78.05277	1043.20056	246.54290	119.10164	1041.10317	101.67335	-44.54451	905.87162	92.73449	53.98276	904.82292	114.55730	6.99129	975.28515	180.27544	13.88271	1027.32034	245.79383	16.82904	1111.01608	311.46203	18.47698	1178.23236	460.47642	24.21983	1122.00240	548.61663	23.57064	1189.01892	450.33904	18.72667	1283.35142	383.72202	19.07624	1236.95920	487.54270	19.92518	1310.11807	725.89580	26.86653	1389.91867	636.90665	-41.14874	1357.65886	638.95410	88.43984	1342.67752	604.19739	28.56442	1388.52041	502.22441	-145.26905	1293.98817	466.46895	196.45529	1266.27269	363.14765	-190.46275	1008.69354	359.50219	-129.83827	1003.05057	307.21732	182.72240	987.37010	309.11496	121.79828	990.01680	387.06786	-126.49244	779.87856	428.21660	-106.31757	790.66512	340.97527	-172.58502	1001.40262	337.72931	135.23155	760.85226	377.72949	112.45992	770.83982	288.19102	166.04317	984.27396	578.97881	-131.13665	788.56773	506.26937	-129.23902	749.81600	441.10055	-112.11035	766.34542	498.47908	219.02717	739.47888	420.47624	197.60386	723.74848	378.37868	145.26905	741.17677	179.97582	-138.52745	902.42591	165.84342	-144.86955	521.60028	159.00194	-71.76061	514.90861	203.24683	-101.87310	519.35308	102.07285	134.03304	900.87784	90.73698	128.44001	519.95233	149.16420	84.04531	513.16079	146.96693	137.47875	518.00476	143.92073	-170.03819	95.53100	146.26780	-107.41620	90.43735	227.51660	-110.36253	481.84979	78.55215	186.81729	97.82814	85.49351	124.79455	90.38741	182.42277	121.14909	478.20433	106.51732	-131.58609	-0.29963	254.08351	-123.84573	0.79900	242.89744	-189.61381	0.29963	267.31702	-159.05188	0.69913	145.51874	-138.27776	4.19477	343.07266	-171.98577	0.34956	42.19744	153.50878	1.04869	187.86599	128.44001	1.14857	184.47022	195.05703	0.84894	205.14447	161.84840	1.04869	81.74817	155.55623	5.29341	281.89886	165.74354	0.09988 
666	2.771	164.74479	10.83650	924.34860	265.66907	-99.82565	963.74952	243.99607	138.72720	961.25263	263.97119	-78.30246	1043.35037	246.09346	118.90189	1041.30292	101.37373	-44.74427	905.82168	92.43486	53.83294	904.77299	114.20774	6.79154	975.23522	179.82600	13.68296	1027.37027	245.19458	16.62929	1111.16590	310.71297	18.22730	1178.48204	459.87716	23.92020	1122.60165	547.86756	23.27101	1189.76799	449.39022	18.42705	1283.90073	382.87308	18.82655	1237.40864	486.54394	19.62555	1310.76727	724.74723	26.51697	1391.06724	635.80802	-41.44837	1358.60767	637.85547	88.14021	1343.62634	603.04882	28.26479	1389.41929	501.27559	-145.56867	1294.48754	465.57007	196.15566	1266.82201	362.94790	-190.46275	1008.79341	359.30244	-129.83827	1003.20038	307.16738	182.42277	987.46998	308.96514	121.49866	990.16662	386.91804	-126.64225	779.97843	428.11672	-106.51732	790.76500	340.72558	-172.53508	1001.55243	337.57950	135.08174	760.95213	377.57967	112.31010	770.98963	288.09114	165.79348	984.42377	578.87893	-131.33640	788.56773	506.11956	-129.43877	749.86594	440.95074	-112.26017	766.44529	498.32926	218.87736	739.57876	420.27649	197.45404	723.84835	378.22887	145.11923	741.27664	179.67619	-138.72720	902.42591	165.69361	-144.86955	521.60028	158.80219	-71.81055	514.95855	203.09702	-101.92304	519.35308	101.77323	133.78336	900.92777	90.53722	128.34014	520.00227	149.01438	83.94543	513.21073	146.81712	137.37888	518.05469	143.92073	-170.03819	95.53100	146.26780	-107.41620	90.43735	227.36678	-110.41247	481.89973	78.50222	186.76736	97.82814	85.49351	124.74461	90.38741	182.22302	121.04922	478.25427	106.51732	-131.58609	-0.29963	254.13344	-123.79580	0.79900	242.94738	-189.56387	0.29963	267.36696	-158.95200	0.74907	145.51874	-138.22782	4.19477	343.12260	-171.83596	0.34956	42.19744	153.45885	1.04869	187.86599	128.44001	1.14857	184.42028	195.05703	0.89888	205.09453	161.79846	1.04869	81.74817	155.50630	5.34334	281.89886	165.79348	0.09988 
